<svg xmlns="http://www.w3.org/2000/svg" viewBox="0 0 1000 563" role="img" aria-label="The Simplist Prompt Builder vintage record player logo">
<rect width="1000" height="563" fill="#32190d"/><g fill="none" stroke="#c79b61" stroke-width="2"><rect x="14" y="14" width="972" height="535"/><rect x="21" y="21" width="958" height="521"/><path d="M32 21v20H21m947-20v20h11M32 542v-20H21m947 20v-20h11"/></g>
<g transform="translate(380 42)" fill="none" stroke="#ecd5aa" stroke-width="5" stroke-linecap="round" stroke-linejoin="round"><path d="M35 75h205l22 108H16L35 75Z"/><ellipse cx="118" cy="128" rx="75" ry="42"/><ellipse cx="118" cy="128" rx="52" ry="29"/><circle cx="118" cy="128" r="5"/><path d="M218 93v25l-59 34m59-59 18-16m-21 78h24m-200 28-11 28m218-28 11 28"/><path d="M34 74 55 14h167l39 60"/><path d="M64 31h147"/><path d="M76 53l8-12m-4 6h-10m119 7 9-14m-4 7h-12"/></g>
<g fill="#f1dfbd" text-anchor="middle"><text x="500" y="348" font-family="Georgia,Times New Roman,serif" font-size="94">The</text><text x="500" y="438" font-family="Georgia,Times New Roman,serif" font-size="112">Simplist</text><text x="500" y="493" font-family="Georgia,Times New Roman,serif" font-size="30" letter-spacing="9">PROMPT BUILDER</text></g><g stroke="#c79b61" stroke-width="2"><path d="M250 482h120m260 0h120"/></g><path d="M900 330a180 180 0 0 1 100-20v253H865a180 180 0 0 1 35-233Z" fill="#17100c" stroke="#c79b61" stroke-width="8"/><g fill="none" stroke="#5f4a37" stroke-width="2"><path d="M900 348a160 160 0 0 1 100-20M886 375a145 145 0 0 1 114-29M875 405a130 130 0 0 1 125-40M868 438a115 115 0 0 1 132-54"/></g>
</svg>
